<?xml version="1.0" standalone="no"?>
<!DOCTYPE svg PUBLIC "-//W3C//DTD SVG 20010904//EN"
 "http://www.w3.org/TR/2001/REC-SVG-20010904/DTD/svg10.dtd">
<svg version="1.0" xmlns="http://www.w3.org/2000/svg"
 width="200.000000pt" height="200.000000pt" viewBox="0 0 200.000000 200.000000"
 preserveAspectRatio="xMidYMid meet">
<metadata>
Created by potrace 1.14, written by Peter Selinger 2001-2017
</metadata>
<g transform="translate(0.000000,200.000000) scale(0.100000,-0.100000)"
fill="#000000" stroke="none">
<path d="M862 1730 c-10 -27 -7 -62 9 -92 14 -25 27 -23 35 7 7 30 0 63 -20
90 -14 20 -15 20 -24 -5z"/>
<path d="M1102 1668 c-14 -14 -16 -68 -3 -68 13 0 33 62 23 72 -4 4 -13 3 -20
-4z"/>
<path d="M1005 1647 c-12 -48 -12 -63 2 -89 17 -34 27 -35 41 -4 10 23 9 56
-4 99 -8 25 -33 21 -39 -6z"/>
<path d="M942 1632 c-25 -25 -30 -65 -8 -56 17 7 40 48 34 65 -3 9 -11 6 -26
-9z"/>
<path d="M1189 1624 c-37 -15 -81 -73 -57 -75 55 -5 102 10 126 40 32 41 32
47 -1 49 -18 0 -48 -6 -68 -14z"/>
<path d="M810 1604 c0 -11 35 -34 52 -34 16 0 18 3 9 14 -10 12 -61 29 -61 20z"/>
<path d="M679 1593 c0 -5 -2 -15 -4 -25 -4 -22 33 -81 46 -73 12 8 8 52 -9 83
-12 21 -31 30 -33 15z"/>
<path d="M1513 1584 c-5 -10 -8 -25 -7 -31 1 -7 2 -17 3 -23 0 -5 5 -10 10
-10 14 0 23 49 12 67 -8 15 -10 14 -18 -3z"/>
<path d="M450 1572 c0 -25 46 -82 67 -82 10 0 13 6 8 23 -17 56 -75 102 -75
59z"/>
<path d="M1390 1579 c-36 -14 -60 -39 -60 -61 0 -26 37 -16 68 18 17 20 31 56
20 53 -2 0 -14 -5 -28 -10z"/>
<path d="M790 1538 c-23 -38 -26 -90 -6 -107 16 -13 29 -1 46 43 11 30 4 96
-11 96 -5 0 -18 -15 -29 -32z"/>
<path d="M1583 1550 c-34 -21 -56 -53 -51 -75 5 -23 80 16 100 53 16 27 16 31
2 36 -20 8 -14 9 -51 -14z"/>
<path d="M1268 1555 c-9 -9 4 -54 18 -66 11 -9 14 -6 14 19 0 28 -21 58 -32
47z"/>
<path d="M396 1513 c-6 -7 13 -45 28 -55 18 -12 26 2 14 27 -11 24 -31 38 -42
28z"/>
<path d="M557 1488 c-15 -31 -13 -58 4 -58 14 0 39 43 39 67 0 33 -25 28 -43
-9z"/>
<path d="M1042 1500 c-29 -27 -64 -98 -92 -186 l-23 -71 -60 64 c-61 65 -86
78 -48 25 29 -42 76 -147 96 -216 22 -75 17 -196 -9 -225 -16 -18 -20 -18 -61
-4 -49 16 -97 65 -127 127 l-19 41 6 -35 c14 -72 13 -75 -25 -72 -36 3 -120
39 -120 50 0 4 -13 21 -28 37 -15 17 -43 50 -62 75 -53 68 -64 80 -73 80 -4 0
5 -17 21 -37 17 -21 55 -74 87 -118 63 -89 67 -77 -30 -104 -40 -11 -150 -69
-143 -76 2 -2 31 10 65 26 63 30 119 43 188 43 58 0 135 -15 135 -26 0 -15
-20 -49 -68 -113 l-44 -60 82 82 82 83 30 -21 c63 -45 77 -107 47 -204 -24
-77 -38 -176 -33 -240 4 -52 6 -62 19 -108 l7 -27 135 0 136 0 -29 22 c-42 32
-52 46 -86 116 -50 104 -44 217 19 334 31 57 105 133 155 159 l37 19 53 -43
c30 -24 67 -52 83 -62 29 -17 29 -17 -2 9 -69 57 -115 108 -105 118 28 28 231
44 317 24 11 -2 34 -7 50 -11 17 -5 26 -4 22 1 -4 4 -46 18 -93 29 l-86 21 37
49 c21 28 58 71 83 97 25 26 43 50 40 53 -6 6 -93 -76 -140 -132 -38 -45 -75
-61 -132 -59 -63 2 -79 23 -72 91 3 28 10 66 16 85 5 19 10 37 10 40 -1 7 -23
-32 -27 -45 -1 -5 -8 -30 -14 -55 -7 -25 -16 -62 -21 -83 -7 -28 -18 -43 -40
-55 -16 -9 -60 -36 -96 -59 -80 -50 -86 -46 -87 63 0 62 4 77 32 122 30 49 31
53 17 82 -14 28 -44 42 -44 21 0 -12 25 -37 42 -44 9 -3 5 -11 -12 -23 -14
-10 -37 -32 -52 -48 l-28 -30 -1 59 c-2 97 1 127 17 185 19 65 49 127 77 158
26 28 18 29 -11 2z"/>
<path d="M1450 1497 c0 -23 25 -55 35 -45 2 2 1 17 -3 33 -10 37 -32 45 -32
12z"/>
<path d="M1108 1503 c-53 -14 32 -69 91 -60 39 6 46 12 36 27 -17 27 -84 44
-127 33z"/>
<path d="M872 1475 c-12 -15 -22 -30 -23 -34 0 -3 -2 -14 -4 -24 -2 -10 1 -32
7 -49 l11 -31 18 22 c24 29 34 82 22 117 l-9 27 -22 -28z"/>
<path d="M1335 1460 c-18 -19 -17 -20 4 -20 25 0 61 17 61 28 0 17 -48 10 -65
-8z"/>
<path d="M650 1463 c0 -17 40 -67 62 -79 26 -15 68 -18 68 -5 0 16 -42 61 -70
76 -31 16 -60 20 -60 8z"/>
<path d="M1685 1430 c-13 -26 -14 -30 -1 -30 14 0 46 36 46 52 0 20 -31 5 -45
-22z"/>
<path d="M1540 1428 c-24 -9 -24 -10 -6 -24 34 -24 116 -12 84 13 -21 16 -52
21 -78 11z"/>
<path d="M425 1420 c-8 -13 33 -29 59 -22 18 5 18 6 1 19 -22 15 -51 17 -60 3z"/>
<path d="M1404 1413 c-49 -24 -93 -113 -56 -113 42 0 101 54 117 108 8 27 -14
29 -61 5z"/>
<path d="M305 1400 c-14 -44 18 -111 45 -95 14 9 7 63 -11 93 -17 27 -26 28
-34 2z"/>
<path d="M1743 1405 c-50 -21 -90 -101 -56 -112 18 -6 71 47 83 83 7 19 10 37
8 39 -1 2 -18 -3 -35 -10z"/>
<path d="M1062 1402 c-16 -11 0 -26 34 -34 27 -7 53 7 39 21 -15 15 -58 22
-73 13z"/>
<path d="M586 1374 c-44 -44 -39 -89 6 -51 32 27 47 67 24 67 -8 0 -22 -7 -30
-16z"/>
<path d="M1257 1367 c-6 -17 19 -77 33 -77 13 0 13 31 0 64 -10 28 -25 34 -33
13z"/>
<path d="M400 1344 c-15 -40 -12 -80 9 -105 l19 -24 11 28 c14 37 14 70 -1
102 -14 32 -26 32 -38 -1z"/>
<path d="M1624 1362 c-34 -24 -61 -112 -34 -112 12 0 60 51 61 65 0 5 2 20 5
33 4 22 -11 29 -32 14z"/>
<path d="M182 1338 c17 -26 61 -43 86 -33 15 6 13 10 -11 31 -17 14 -41 24
-59 24 -29 0 -30 -1 -16 -22z"/>
<path d="M1838 1352 c-27 -3 -62 -38 -53 -52 8 -13 53 2 75 25 24 25 18 32
-22 27z"/>
<path d="M1074 1316 c-6 -25 1 -46 15 -46 10 0 19 40 13 58 -6 20 -21 14 -28
-12z"/>
<path d="M487 1323 c-7 -11 19 -53 34 -53 14 0 11 16 -9 41 -11 12 -21 18 -25
12z"/>
<path d="M720 1320 c-11 -7 -9 -11 13 -19 37 -14 52 -14 66 3 9 11 7 15 -11
20 -32 8 -51 7 -68 -4z"/>
<path d="M1131 1293 c-20 -15 -31 -34 -31 -49 0 -33 16 -30 56 10 57 57 37 87
-25 39z"/>
<path d="M187 1281 l-29 -6 24 -22 c40 -37 86 -47 131 -28 27 11 21 21 -26 44
-45 22 -53 23 -100 12z"/>
<path d="M582 1278 c-21 -21 -15 -40 11 -32 27 8 47 23 47 35 0 13 -44 11 -58
-3z"/>
<path d="M680 1266 c0 -16 28 -42 36 -33 8 7 -14 47 -26 47 -6 0 -10 -6 -10
-14z"/>
<path d="M1702 1266 l-24 -13 26 -16 c34 -23 98 -30 122 -13 17 13 16 15 -16
35 -40 24 -74 26 -108 7z"/>
<path d="M1352 1254 c-12 -8 -22 -22 -22 -30 0 -12 8 -14 37 -9 36 5 73 29 73
47 0 14 -64 9 -88 -8z"/>
<path d="M1490 1241 c-15 -28 -12 -67 5 -81 13 -11 16 -7 22 21 7 32 7 43 4
69 -2 17 -20 11 -31 -9z"/>
<path d="M644 1214 c3 -9 6 -19 6 -24 0 -12 29 -40 41 -40 13 0 1 40 -19 63
-19 21 -36 22 -28 1z"/>
<path d="M764 1209 c-25 -13 -54 -59 -54 -88 0 -25 3 -26 36 -5 28 19 46 48
50 81 2 25 -1 26 -32 12z"/>
<path d="M492 1198 c-15 -15 -16 -52 -2 -43 16 10 31 43 22 49 -5 3 -14 0 -20
-6z"/>
<path d="M1105 1171 c22 -22 72 -35 80 -21 9 14 -37 40 -69 40 -30 0 -30 0
-11 -19z"/>
<path d="M1620 1183 c1 -14 34 -50 57 -62 28 -14 73 -14 73 0 0 24 -62 69 -96
69 -19 0 -34 -3 -34 -7z"/>
<path d="M1782 1178 c-7 -7 -12 -18 -12 -25 0 -11 6 -10 30 2 17 9 30 20 30
25 0 14 -34 12 -48 -2z"/>
<path d="M313 1173 c-12 -2 -26 -10 -32 -17 -9 -10 -5 -16 16 -25 29 -11 41
-10 81 3 22 7 29 21 15 29 -15 8 -58 14 -80 10z"/>
<path d="M1413 1169 c-22 -8 -49 -46 -40 -56 9 -8 46 16 58 38 13 26 10 29
-18 18z"/>
<path d="M1830 1150 c-35 -24 61 -55 98 -31 10 6 10 10 -2 20 -20 17 -78 24
-96 11z"/>
<path d="M170 1136 c15 -14 32 -19 59 -17 28 2 -11 31 -42 31 -27 0 -29 -2
-17 -14z"/>
<path d="M521 1128 c-9 -24 -4 -48 9 -48 10 0 20 26 20 51 0 26 -19 24 -29 -3z"/>
<path d="M1317 1143 c-8 -14 12 -53 27 -53 11 0 12 7 7 27 -7 27 -25 41 -34
26z"/>
<path d="M1775 1120 c-7 -11 38 -60 55 -60 13 0 13 6 0 30 -14 25 -47 43 -55
30z"/>
<path d="M640 1107 c0 -8 9 -22 20 -32 19 -18 20 -17 20 1 0 20 -17 44 -32 44
-4 0 -8 -6 -8 -13z"/>
<path d="M1601 1109 c-37 -8 -76 -48 -61 -63 13 -13 69 13 87 41 19 29 17 32
-26 22z"/>
<path d="M395 1100 c-7 -11 38 -60 55 -60 18 0 11 26 -13 48 -26 25 -33 27
-42 12z"/>
<path d="M765 1085 c-31 -30 -33 -55 -5 -48 20 5 60 48 60 64 0 17 -31 8 -55
-16z"/>
<path d="M119 1081 c-29 -23 -23 -31 25 -33 34 -1 76 23 76 44 0 16 -78 8
-101 -11z"/>
<path d="M246 1075 c-28 -43 -15 -63 17 -27 18 20 23 52 8 52 -5 0 -16 -11
-25 -25z"/>
<path d="M1376 1091 c-7 -11 22 -23 35 -15 5 3 7 10 4 15 -8 12 -32 12 -39 0z"/>
<path d="M1660 1063 c-20 -8 -40 -36 -33 -46 13 -21 103 18 103 45 0 9 -47 10
-70 1z"/>
<path d="M322 1042 c-10 -7 -8 -12 5 -24 19 -17 34 -21 73 -19 l25 2 -28 24
c-29 26 -52 31 -75 17z"/>
<path d="M427 982 c-19 -21 -22 -32 -8 -32 12 0 41 29 41 41 0 15 -16 10 -33
-9z"/>
<path d="M1730 984 c0 -31 57 -74 107 -81 43 -6 43 9 -1 53 -26 26 -42 34 -70
34 -20 0 -36 -3 -36 -6z"/>
<path d="M241 970 c-14 -3 -26 -10 -28 -16 -5 -14 32 -38 71 -48 30 -7 86 9
86 25 0 22 -89 49 -129 39z"/>
<path d="M1321 951 c-20 -13 -4 -31 28 -31 29 0 57 21 44 33 -9 10 -56 8 -72
-2z"/>
<path d="M1640 931 c0 -11 39 -25 47 -18 3 3 2 10 -2 16 -8 13 -45 15 -45 2z"/>
<path d="M1433 905 c-32 -14 -60 -50 -45 -59 13 -8 61 3 87 20 24 15 40 43 27
45 -4 0 -14 2 -23 4 -8 1 -29 -3 -46 -10z"/>
<path d="M1561 889 c-12 -36 -1 -69 16 -47 17 22 22 57 8 68 -10 8 -15 3 -24
-21z"/>
<path d="M1173 893 c-28 -19 -32 -56 -5 -46 25 9 52 34 52 50 0 17 -19 16 -47
-4z"/>
<path d="M1629 882 c-2 -33 3 -57 17 -80 31 -48 54 -2 28 54 -18 37 -43 52
-45 26z"/>
<path d="M1717 880 c6 -24 58 -70 79 -70 25 0 15 37 -17 64 -38 32 -69 35 -62
6z"/>
<path d="M110 880 c-13 -9 -12 -12 4 -25 25 -19 76 -19 101 -1 18 13 18 14 -3
25 -26 14 -82 14 -102 1z"/>
<path d="M1260 851 c0 -26 10 -51 21 -51 10 0 12 31 3 54 -9 22 -24 20 -24 -3z"/>
<path d="M377 840 c-25 -20 -50 -73 -40 -84 11 -11 63 28 77 58 23 48 6 60
-37 26z"/>
<path d="M1201 824 c-12 -15 -21 -40 -21 -56 0 -25 2 -28 20 -18 23 12 36 35
41 69 5 34 -15 37 -40 5z"/>
<path d="M232 813 c-35 -17 -70 -70 -55 -83 4 -5 26 -2 48 5 39 14 70 44 79
78 5 22 -27 23 -72 0z"/>
<path d="M1464 815 c-14 -9 -14 -13 -2 -23 27 -22 83 -39 107 -33 l23 6 -26
27 c-30 29 -79 40 -102 23z"/>
<path d="M1319 785 c-1 -8 -2 -25 -3 -37 -2 -27 14 -68 26 -68 19 0 29 66 15
98 -12 25 -36 30 -38 7z"/>
<path d="M1427 753 c-8 -14 12 -68 33 -91 27 -29 47 -28 44 1 -1 12 -3 28 -3
35 -1 14 -49 62 -62 62 -4 0 -10 -3 -12 -7z"/>
<path d="M1530 699 c0 -21 50 -79 69 -79 18 0 1 55 -25 78 -31 28 -44 28 -44
1z"/>
</g>
</svg>
