<?xml version="1.0" standalone="no"?>
<!DOCTYPE svg PUBLIC "-//W3C//DTD SVG 20010904//EN"
 "http://www.w3.org/TR/2001/REC-SVG-20010904/DTD/svg10.dtd">
<svg version="1.0" xmlns="http://www.w3.org/2000/svg"
 width="347.000000pt" height="347.000000pt" viewBox="0 0 347.000000 347.000000"
 preserveAspectRatio="xMidYMid meet">
<metadata>
Created by potrace 1.14, written by Peter Selinger 2001-2017
</metadata>
<g transform="translate(0.000000,347.000000) scale(0.100000,-0.100000)"
fill="#000000" stroke="none">
<path d="M1536 3009 c-187 -34 -348 -98 -505 -203 -87 -58 -232 -188 -289
-259 -140 -174 -233 -370 -279 -590 -24 -115 -24 -391 0 -504 44 -202 125
-386 234 -530 162 -214 368 -373 589 -453 190 -69 281 -85 479 -85 150 1 216
7 310 31 368 94 683 339 856 667 43 83 84 176 95 217 74 272 80 490 19 735
-99 394 -390 732 -770 893 -220 93 -503 124 -739 81z m479 -123 c39 -10 77
-19 85 -21 37 -8 162 -59 226 -94 191 -103 364 -268 477 -456 68 -113 128
-285 151 -435 13 -82 14 -305 2 -362 -3 -16 -8 -39 -10 -53 -3 -13 -17 -64
-31 -112 -76 -249 -226 -459 -445 -623 -191 -144 -475 -234 -722 -229 -319 6
-614 131 -834 354 -203 206 -319 452 -349 741 l-6 59 39 -80 c142 -290 425
-474 737 -478 161 -3 267 20 397 84 397 194 580 676 415 1092 -76 192 -244
370 -430 457 -89 42 -207 70 -322 77 -55 3 -101 7 -103 8 -7 6 164 58 245 75
116 23 375 21 478 -4z m-452 -226 c154 -47 266 -123 368 -250 68 -84 128 -214
144 -311 3 -19 8 -47 11 -64 7 -35 2 -30 -48 45 -48 71 -89 110 -162 154 -86
51 -155 69 -266 69 -113 0 -194 -24 -279 -83 -71 -48 -102 -79 -139 -132 -67
-98 -95 -190 -94 -308 1 -105 27 -194 81 -276 93 -142 198 -209 371 -239 l65
-11 -70 -18 c-87 -23 -236 -27 -324 -9 -285 58 -510 281 -575 570 -8 35 -14
104 -14 155 1 164 36 279 129 417 120 181 306 294 519 317 30 4 56 7 57 8 9 8
168 -17 226 -34z m210 -508 c160 -75 246 -219 235 -397 -10 -147 -89 -265
-225 -332 -66 -33 -85 -37 -156 -39 -89 -2 -116 4 -195 44 -107 54 -192 171
-211 292 -28 174 59 346 213 424 75 38 106 44 199 41 60 -3 91 -10 140 -33z"/>
</g>
</svg>
